<svg xmlns="http://www.w3.org/2000/svg" width="40" height="40"><g fill="none" fill-rule="evenodd"><circle cx="20" cy="20" r="20" fill="#FFF"/><path fill="#000" d="M38.08 11.43A19.97 19.97 0 0 0 12.87 1.31 20.06 20.06 0 0 0 .17 22.67a19.95 19.95 0 0 0 7.97 13.44l.08.06A19.85 19.85 0 0 0 20 40a19.96 19.96 0 0 0 18.08-28.57Zm-4.41 21.73 2.4-6.4 2.9-5.5.38.22a19.37 19.37 0 0 1-5.41 12.02l-.27-.34ZM12.15 35.9l-1.56-5.1 6.23-2.8 7.5 2.33 1.43 5-6.3 2.96-7.3-2.4Zm1.12-30.74 6.46 1.69 1.01 6.92-5.8 5.52-6.88-1.7-1.15-7 6.36-5.43Zm25.28 15.65-2.9 5.47-4.52-1.74-1.65-8.08 3.22-5.19 4.12 1.54 1.73 8Zm-17.41-6.6 7.77 2.42 1.64 8.01-6.05 5.13-7.44-2.33-1.71-7.73 5.79-5.5Zm16.32-2.68-.5.7-4.2-1.57-5.13-5.7v-2.8a19.38 19.38 0 0 1 9.83 9.37ZM27.04 1.91v2.92L20.01 6.3l-6.53-1.7-.2-2.81a19.34 19.34 0 0 1 13.76.12Zm-24.13 8.9 3.43-.04L7.5 17.8 4.79 24.1h-3.1l-.93-1.58A19.42 19.42 0 0 1 2.9 10.8ZM1.74 26.6l.07-1.9h3.04l5.11 6.09 1.54 5.01-3.07-.22a19.36 19.36 0 0 1-6.69-8.98Zm18.03 12.8v-.6l6.44-3.03 7.02-2.21.29.37a19.28 19.28 0 0 1-13.75 5.48Z"/></g></svg>