<svg xmlns="http://www.w3.org/2000/svg" width="1620" height="1080" fill="none"><g clip-path="url(#a)"><path fill="#00A000" d="M0 0v1080h1620V0H0Z"/><path stroke="#fff" stroke-width="5" d="M43.78 1036.22V43.78h1532.44v992.44H43.78ZM810 1036.22V43.78"/><path stroke="#fff" stroke-width="5" d="M943.54 540c0-73.75-59.79-133.54-133.54-133.54S676.46 466.25 676.46 540 736.25 673.54 810 673.54 943.54 613.75 943.54 540Z"/><path fill="#fff" d="M820.95 540a10.95 10.95 0 1 0-21.9 0 10.95 10.95 0 0 0 21.9 0Z"/><path stroke="#fff" stroke-width="5" d="M43.78 834.23H284.6V245.77H43.8"/><path stroke="#fff" stroke-width="5" d="M43.78 673.69h80.27V406.3H43.78"/><path fill="#fff" d="M214.4 540a10.95 10.95 0 1 0-21.9 0 10.95 10.95 0 0 0 21.9 0Z"/><path stroke="#fff" stroke-width="5" d="M284.6 646.06a133.53 133.53 0 0 0 0-212.12M1576.22 245.77h-240.81v588.46h240.81"/><path stroke="#fff" stroke-width="5" d="M1576.22 406.31h-80.27V673.7h80.27"/><path fill="#fff" d="M1405.6 540a10.95 10.95 0 1 0 21.9-.01 10.95 10.95 0 0 0-21.9.01Z"/><path stroke="#fff" stroke-width="5" d="M1335.41 433.94a133.53 133.53 0 0 0 0 212.12M72.97 1036.22a29.17 29.17 0 0 0-29.19-29.19m0-934.06a29.19 29.19 0 0 0 29.2-29.19m1474.05 0a29.16 29.16 0 0 0 29.19 29.2m0 934.05a29.14 29.14 0 0 0-20.64 8.55 29.14 29.14 0 0 0-8.55 20.64"/></g><defs><clipPath id="a"><path fill="#fff" d="M0 1080V0h1620v1080z"/></clipPath></defs></svg>